<svg xmlns="http://www.w3.org/2000/svg" version="1.1" xmlns:xlink="http://www.w3.org/1999/xlink" xmlns:svgjs="http://svgjs.dev/svgjs" width="1500" height="1631" viewBox="0 0 1500 1631"><g transform="matrix(1,0,0,1,-3.2797113272443994,-2.6306451612903174)"><svg viewBox="0 0 228 248" data-background-color="#ebe3d6" preserveAspectRatio="xMidYMid meet" height="1631" width="1500" xmlns="http://www.w3.org/2000/svg" xmlns:xlink="http://www.w3.org/1999/xlink"><g id="tight-bounds" transform="matrix(1,0,0,1,0.49851612174114734,0.4000000000000057)"><svg viewBox="0 0 227.0029677565177 247.2" height="247.2" width="227.0029677565177"><g><svg viewBox="0 0 395.52000000000004 430.71042183408974" height="247.2" width="227.0029677565177"><g transform="matrix(1,0,0,1,0,268.7620727004121)"><svg viewBox="0 0 395.52000000000004 161.94834913367765" height="161.94834913367765" width="395.52000000000004"><g id="textblocktransform"><svg viewBox="0 0 395.52000000000004 161.94834913367765" height="161.94834913367765" width="395.52000000000004" id="textblock"><g><rect width="75.54432000000001" height="9.505538544536043" y="141.36574774330177" fill="#505050" data-fill-palette-color="tertiary"></rect><rect width="75.54432000000001" height="9.505538544536043" y="141.36574774330177" x="319.97568" fill="#505050" data-fill-palette-color="tertiary"></rect></g><g><svg viewBox="0 0 395.52000000000004 105.40507614213199" height="105.40507614213199" width="395.52000000000004"><g transform="matrix(1,0,0,1,0,0)"><svg width="395.52000000000004" viewBox="1.71 -31.74 153.89 41.019999999999996" height="105.40507614213199" data-palette-color="#505050"><path d="M7.18 0L20.61 0Q20.61-1.07 19.82-1.22L19.82-1.22Q19.58-1.27 19.34-1.27L19.34-1.27 16.02-1.27 16.02-28.03 18.85-28.03Q22.8-28.03 24.12-23.24L24.12-23.24Q24.12-23.05 24.17-22.95L24.17-22.95 24.95-19.68 26.32-19.68 26.07-29.3 1.95-29.3 1.71-19.68 3.08-19.68 3.86-22.95Q5.42-27.73 9.18-28.03L9.18-28.03 11.82-28.03 11.82-1.27 7.18-1.27 7.18 0ZM40.43-1.22L40.43-1.22 36.91-1.22 36.91-10.94Q36.91-15.38 39.65-18.07L39.65-18.07Q40.72-19.09 41.45-19.14L41.45-19.14Q42.28-19.14 42.97-17.92L42.97-17.92Q43.75-16.55 44.43-16.36L44.43-16.36Q44.72-16.26 45.02-16.26L45.02-16.26Q46.48-16.26 46.87-17.68L46.87-17.68Q46.97-17.97 46.97-18.26L46.97-18.26Q46.97-20.46 44.72-20.95L44.72-20.95Q44.24-21.04 43.8-21.04L43.8-21.04Q40.87-21.04 38.57-18.55L38.57-18.55Q37.5-17.38 36.86-15.92L36.86-15.92 36.67-20.75 29.59-20.75 29.59-19.53 33.25-19.53 33.25-4.15Q33.25-1.9 31.98-1.46L31.98-1.46Q31.25-1.22 29.59-1.22L29.59-1.22 29.59 0 41.65 0Q41.65-1.07 40.92-1.17L40.92-1.17Q40.72-1.22 40.43-1.22ZM66.3 0.49L66.3 0.49Q70.06 0.49 70.45-4.05L70.45-4.05Q70.5-4.35 70.5-4.59L70.5-4.59 69.23-4.64Q68.89-1.07 67.33-1.03L67.33-1.03Q66.06-1.12 66.01-3.56L66.01-3.56 66.01-13.87Q66.01-20.85 59.03-21.24L59.03-21.24Q58.59-21.24 58.15-21.24L58.15-21.24Q52.68-21.24 50.83-18.7L50.83-18.7Q50.24-17.87 50.24-17.04L50.24-17.04Q50.24-15.53 51.66-15.28L51.66-15.28Q51.9-15.23 52.14-15.23L52.14-15.23Q53.27-15.23 53.8-16.65L53.8-16.65Q54.49-18.46 54.73-18.8L54.73-18.8Q55.66-20.02 57.61-20.02L57.61-20.02Q62.2-19.73 62.35-14.99L62.35-14.99 62.35-11.91Q50.87-11.91 49.21-7.13L49.21-7.13Q48.92-6.2 48.92-5.13L48.92-5.13Q48.92-1.42 52.19-0.05L52.19-0.05Q53.51 0.49 54.98 0.49L54.98 0.49Q58.54 0.49 60.98-1.95L60.98-1.95Q61.86-2.88 62.3-3.91L62.3-3.91Q62.89 0.44 66.3 0.49ZM56.59-1.46L56.59-1.46Q53.61-1.46 52.92-4.44L52.92-4.44Q52.78-5.13 52.78-5.96L52.78-5.96Q52.78-9.23 56.54-10.11L56.54-10.11Q58.54-10.55 62.35-10.6L62.35-10.6 62.35-6.69Q61.62-3.32 58.78-1.95L58.78-1.95Q57.66-1.46 56.59-1.46ZM76.95-19.53L80.36-19.53 80.36-20.75 70.89-20.75 70.89-19.53 73.09-19.53 79.05-3.17Q80.02-0.44 81.19 0L81.19 0Q81.78 0.24 82.66 0.24L82.66 0.24 83.29 0.24 90.18-17.82Q90.76-19.34 91.59-19.48L91.59-19.48Q91.84-19.53 92.03-19.53L92.03-19.53Q93.11-19.53 93.21-20.26L93.21-20.26Q93.25-20.51 93.25-20.75L93.25-20.75 85.73-20.75 85.73-19.53 89.4-19.53 83.2-2.88 76.95-19.53ZM104.97-1.22L104.97-1.22 102.33-1.22 102.33-31.74 95.01-31.74 95.01-30.52 98.67-30.52 98.67-4.15Q98.67-1.9 97.4-1.46L97.4-1.46Q96.67-1.22 95.01-1.22L95.01-1.22 95.01 0 106.19 0Q106.19-1.07 105.46-1.17L105.46-1.17Q105.26-1.22 104.97-1.22ZM113.61-10.4L113.61-10.4Q113.61-17.97 117.76-19.63L117.76-19.63Q118.84-20.02 120.01-20.02L120.01-20.02Q125.43-20.02 126.31-13.18L126.31-13.18Q126.45-12.01 126.45-10.6L126.45-10.6Q126.45-2.39 121.96-0.98L121.96-0.98Q121.08-0.73 120.15-0.73L120.15-0.73Q115.22-0.73 113.95-6.59L113.95-6.59Q113.61-8.3 113.61-10.4ZM120.15-21.24L120.15-21.24Q115.47-21.24 112.34-18.02L112.34-18.02Q109.46-15.04 109.46-10.6L109.46-10.6Q109.46-4.44 113.95-1.37L113.95-1.37Q116.69 0.49 120.01 0.49L120.01 0.49Q124.69 0.49 127.77-2.83L127.77-2.83Q130.6-5.86 130.6-10.4L130.6-10.4Q130.6-16.55 126.06-19.53L126.06-19.53Q123.38-21.24 120.15-21.24ZM138.9-13.53L138.9-13.53Q139-19.97 143.78-20.02L143.78-20.02Q148.57-19.92 148.62-13.53L148.62-13.53Q148.52-6.88 143.78-6.84L143.78-6.84Q138.95-6.93 138.9-13.53ZM143.83-21.24L143.83-21.24Q139.44-21.24 136.85-18.41L136.85-18.41Q134.99-16.31 134.99-13.48L134.99-13.48Q134.99-9.77 138.61-7.32L138.61-7.32Q138.95-7.08 139.29-6.88L139.29-6.88Q136.17-6.88 135.39-4.2L135.39-4.2Q135.24-3.56 135.24-2.93L135.24-2.93Q135.29-0.34 137.34 0.93L137.34 0.93Q135.73 2.64 135.73 4.39L135.73 4.39Q135.73 7.08 138.9 8.4L138.9 8.4Q140.9 9.28 143.83 9.28L143.83 9.28Q151.25 9.28 153.65 5.66L153.65 5.66Q154.43 4.44 154.43 3.08L154.43 3.08Q154.43-1.12 149.59-1.76L149.59-1.76Q148.96-1.86 148.28-1.86L148.28-1.86 139.39-2.05Q137.14-2.2 137.09-4L137.09-4Q137.09-5.27 138.71-5.62L138.71-5.62Q139.05-5.66 139.44-5.66L139.44-5.66 143.74-5.62Q148.08-5.62 150.67-8.54L150.67-8.54Q152.52-10.64 152.52-13.53L152.52-13.53Q152.48-17.19 149.69-19.38L149.69-19.38Q150.13-20.95 151.35-21.24L151.35-21.24Q151.55-21.29 151.74-21.29L151.74-21.29Q152.43-21.29 153.21-20.56L153.21-20.56Q153.74-20.07 154.18-20.07L154.18-20.07Q155.4-20.36 155.6-21.63L155.6-21.63Q155.6-23.14 154.18-23.68L154.18-23.68Q153.65-23.88 153.11-23.88L153.11-23.88Q150.82-23.88 149.4-21.83L149.4-21.83Q148.86-21.04 148.57-20.12L148.57-20.12Q146.37-21.24 143.83-21.24ZM143.83 8.01L143.83 8.01Q139 8.01 137.73 5.47L137.73 5.47Q137.39 4.79 137.39 4.1L137.39 4.1Q137.44 2.78 138.56 1.46L138.56 1.46Q139.54 1.66 140.17 1.66L140.17 1.66 147.69 1.76Q151.35 1.81 151.94 3.42L151.94 3.42Q152.08 3.81 152.08 4.39L152.08 4.39Q152.08 6.54 148.08 7.52L148.08 7.52Q146.13 8.01 143.83 8.01Z" opacity="1" transform="matrix(1,0,0,1,0,0)" fill="#505050" class="wordmark-text-0" data-fill-palette-color="primary" id="text-0"></path></svg></g></svg></g><g transform="matrix(1,0,0,1,75.54432000000001,130.28868489746193)"><svg viewBox="0 0 244.43136 31.659664236215725" height="31.659664236215725" width="244.43136"><g transform="matrix(1,0,0,1,8,0)"><svg width="228.43136" viewBox="0 -35.5 331.86 46" height="31.659664236215725" data-palette-color="#505050"><path d="M8.5 0L8.5-32.5 0-32.5 0-35 20.1-35 20.1-32.5 11.3-32.5 11.3 0 8.5 0ZM18.05 0L18.05-25.05 20.85-25.05 20.7-23.3Q23.05-25.5 26.85-25.5L26.85-25.5Q28.2-25.5 30.55-25.05L30.55-25.05 29.8-22.5Q28.2-23 26.45-23L26.45-23Q24.15-23 22.5-22.15 20.85-21.3 20.85-19.6L20.85-19.6 20.85 0 18.05 0ZM47.64 0Q42.24 0.55 39.84 0.55L39.84 0.55Q34.59 0.55 31.49-1.4 28.39-3.35 28.39-8.45L28.39-8.45 28.39-12.6Q28.39-17.55 31.84-19.25L31.84-19.25Q33.49-20.1 36.05-20.1L36.05-20.1Q38.39-20.1 40.8-19.33 43.2-18.55 44.84-17.3L44.84-17.3Q44.84-20.05 43.24-21.68 41.64-23.3 37.09-23.3L37.09-23.3 37.24-25.45Q42.05-25.45 44.32-23.93 46.59-22.4 47.12-20.3 47.64-18.2 47.64-14.9L47.64-14.9 47.64 0ZM44.84-15.15Q42.8-16.1 40.47-16.8 38.14-17.5 36.2-17.5L36.2-17.5Q31.14-17.5 31.14-12.45L31.14-12.45 31.14-8.1Q31.14-4.85 33.39-3.38 35.64-1.9 39.8-1.9L39.8-1.9Q41.95-1.9 44.84-2.3L44.84-2.3 44.84-15.15ZM56.39 0L48.74-25.05 51.69-25.05 58.34-2.9 65.04-25.05 67.99-25.05 60.24 0 56.39 0ZM85.84-1.75Q84.04-0.6 81.74 0 79.44 0.6 77.14 0.6L77.14 0.6Q73.44 0.6 71.27-1.23 69.09-3.05 69.09-6.7L69.09-6.7 69.09-16.95Q69.09-21 71.62-23.25 74.14-25.5 78.29-25.5L78.29-25.5Q82.44-25.5 84.77-23.28 87.09-21.05 87.09-17.1L87.09-17.1 87.09-10.6 71.89-9.75 71.89-6.7Q71.89-4.3 73.44-3.1 74.99-1.9 77.49-1.9L77.49-1.9Q80.99-1.9 84.74-3.9L84.74-3.9 85.84-1.75ZM84.29-17.45Q84.29-20.55 82.34-21.83 80.39-23.1 78.24-23.1L78.24-23.1Q75.49-23.1 73.69-21.6 71.89-20.1 71.89-16.9L71.89-16.9 71.89-12.5 84.29-13.1 84.29-17.45ZM92.94 0L92.94-35 95.74-35 95.74 0 92.94 0ZM136.18 0L131.13-20.25 126.03 0 122.18 0 114.53-25.05 117.48-25.05 124.13-2.9 129.78-25.05 132.63-25.05 138.13-2.9 144.83-25.05 147.78-25.05 140.03 0 136.18 0ZM154.43-32.15Q153.78-32.15 153.26-32.68 152.73-33.2 152.73-33.85L152.73-33.85Q152.73-34.5 153.23-35 153.73-35.5 154.43-35.5L154.43-35.5Q155.13-35.5 155.61-35.02 156.08-34.55 156.08-33.85L156.08-33.85Q156.08-33.15 155.58-32.65 155.08-32.15 154.43-32.15L154.43-32.15ZM152.98 0L152.98-25.05 155.78-25.05 155.78 0 152.98 0ZM167.58 0.65Q164.78-0.15 163.53-1.9 162.28-3.65 162.28-6.6L162.28-6.6 162.28-35 165.08-35 165.08-25.05 171.08-25.05 169.88-22.4 165.08-22.4 165.08-6.6Q165.08-2.6 168.38-1.5L168.38-1.5 167.58 0.65ZM191.13 0L191.13-17.15Q191.13-20.2 189.35-21.58 187.58-22.95 184.78-22.95L184.78-22.95Q183.08-22.95 181.33-22.48 179.58-22 178.23-21.25L178.23-21.25 178.23 0 175.43 0 175.43-35 178.23-35 178.23-23.7Q179.48-24.55 181.23-25.03 182.98-25.5 184.88-25.5L184.88-25.5Q187.48-25.5 189.63-24.55L189.63-24.55Q191.63-23.65 192.75-21.85 193.88-20.05 193.88-17.3L193.88-17.3 193.88 0 191.13 0ZM218.27 0.65Q215.47-0.15 214.22-1.9 212.97-3.65 212.97-6.6L212.97-6.6 212.97-35 215.77-35 215.77-25.05 221.77-25.05 220.57-22.4 215.77-22.4 215.77-6.6Q215.77-2.6 219.07-1.5L219.07-1.5 218.27 0.65ZM225.97 0L225.97-25.05 228.77-25.05 228.62-23.3Q230.97-25.5 234.77-25.5L234.77-25.5Q236.12-25.5 238.47-25.05L238.47-25.05 237.72-22.5Q236.12-23 234.37-23L234.37-23Q232.07-23 230.42-22.15 228.77-21.3 228.77-19.6L228.77-19.6 228.77 0 225.97 0ZM255.57 0Q250.17 0.55 247.77 0.55L247.77 0.55Q242.52 0.55 239.42-1.4 236.32-3.35 236.32-8.45L236.32-8.45 236.32-12.6Q236.32-17.55 239.77-19.25L239.77-19.25Q241.42-20.1 243.97-20.1L243.97-20.1Q246.32-20.1 248.72-19.33 251.12-18.55 252.77-17.3L252.77-17.3Q252.77-20.05 251.17-21.68 249.57-23.3 245.02-23.3L245.02-23.3 245.17-25.45Q249.97-25.45 252.24-23.93 254.52-22.4 255.04-20.3 255.57-18.2 255.57-14.9L255.57-14.9 255.57 0ZM252.77-15.15Q250.72-16.1 248.39-16.8 246.07-17.5 244.12-17.5L244.12-17.5Q239.07-17.5 239.07-12.45L239.07-12.45 239.07-8.1Q239.07-4.85 241.32-3.38 243.57-1.9 247.72-1.9L247.72-1.9Q249.87-1.9 252.77-2.3L252.77-2.3 252.77-15.15ZM264.31 0L256.66-25.05 259.61-25.05 266.26-2.9 272.96-25.05 275.91-25.05 268.16 0 264.31 0ZM280.86 0L280.86-35 283.66-35 283.66 0 280.86 0ZM310.21-9.2Q310.21-5 307.91-2.25 305.61 0.5 300.96 0.5L300.96 0.5Q296.31 0.5 293.93-2.27 291.56-5.05 291.56-9.2L291.56-9.2 291.56-15.8Q291.56-20.55 293.98-23.08 296.41-25.6 300.96-25.6L300.96-25.6Q305.31-25.6 307.76-22.98 310.21-20.35 310.21-15.8L310.21-15.8 310.21-9.2ZM307.41-15.8Q307.41-19.55 305.68-21.3 303.96-23.05 300.96-23.05L300.96-23.05Q297.86-23.05 296.11-21.3 294.36-19.55 294.36-15.8L294.36-15.8 294.36-8.7Q294.36-5.7 296.13-3.85 297.91-2 300.96-2L300.96-2Q304.06-2 305.73-3.83 307.41-5.65 307.41-8.7L307.41-8.7 307.41-15.8ZM325.76 8.35Q329.06 7.1 329.06 3.15L329.06 3.15 329.06-3.05Q326.96 0.6 322.31 0.6L322.31 0.6Q317.91 0.6 315.46-1.8 313.01-4.2 313.01-8.8L313.01-8.8 313.01-16.25Q313.01-20.65 315.58-23.08 318.16-25.5 322.51-25.5L322.51-25.5Q327.16-25.5 329.26-22.15L329.26-22.15 329.06-25.05 331.86-25.05 331.86 3.2Q331.86 6.2 330.61 7.9 329.36 9.6 326.51 10.5L326.51 10.5 325.76 8.35ZM329.06-16.8Q329.06-19.9 327.06-21.43 325.06-22.95 322.31-22.95L322.31-22.95Q319.66-22.95 317.73-21.33 315.81-19.7 315.81-16L315.81-16 315.81-8.35Q315.81-5.2 317.58-3.6 319.36-2 322.31-2L322.31-2Q325.11-2 327.08-3.73 329.06-5.45 329.06-8.65L329.06-8.65 329.06-16.8Z" opacity="1" transform="matrix(1,0,0,1,0,0)" fill="#505050" class="slogan-text-1" data-fill-palette-color="secondary" id="text-1"></path></svg></g></svg></g></svg></g></svg></g><g transform="matrix(1,0,0,1,88.26257240512393,0)"><svg viewBox="0 0 218.99485518975217 218.99485518975217" height="218.99485518975217" width="218.99485518975217"><g><svg></svg></g><g id="icon-0"><svg viewBox="0 0 218.99485518975217 218.99485518975217" height="218.99485518975217" width="218.99485518975217"><g><path d="M0 109.497c0-60.474 49.024-109.497 109.497-109.497 60.474 0 109.497 49.024 109.498 109.497 0 60.474-49.024 109.497-109.498 109.498-60.474 0-109.497-49.024-109.497-109.498zM109.497 209.489c55.224 0 99.992-44.768 99.992-99.992 0-55.224-44.768-99.992-99.992-99.991-55.224 0-99.992 44.768-99.991 99.991 0 55.224 44.768 99.992 99.991 99.992z" data-fill-palette-color="tertiary" fill="#505050" stroke="transparent"></path></g><g transform="matrix(1,0,0,1,53.7824689456854,62.22126412504946)"><svg viewBox="0 0 111.42991729838137 94.55232693965326" height="94.55232693965326" width="111.42991729838137"><g><svg xmlns="http://www.w3.org/2000/svg" xmlns:xlink="http://www.w3.org/1999/xlink" version="1.1" x="0" y="0" viewBox="186.6 84 235.70000000000002 200" enable-background="new 0 0 612 396" xml:space="preserve" height="94.55232693965326" width="111.42991729838137" class="icon-dxe-0" data-fill-palette-color="accent" id="dxe-0"><g fill="#b57858" data-fill-palette-color="accent"><path d="M420.1 131.6C418.7 130.3 416.9 129.7 415 129.8 404.4 130.6 396.8 131.4 391.8 132.1V111.3C390.2 84.8 299.6 84 289.2 84 263.1 84 238.6 86.3 220 90.4 197.5 95.4 186.6 102.4 186.6 112V256C186.6 283.2 278.7 284 289.2 284 315.3 284 339.8 281.7 358.4 277.6 380.9 272.6 391.8 265.6 391.8 256V208.9C403.3 176.7 417.4 168.7 418.3 168.1 420.8 167.1 422.3 164.7 422.3 161.9V136.5C422.3 134.6 421.5 132.8 420.1 131.6M378.2 140.9C373.8 140.3 369.4 137.8 366.2 131.6 370.8 130.3 374.8 128.9 378.2 127.3zM226.8 102.8C243.9 99.4 266.1 97.5 289.3 97.5 312.4 97.5 334.6 99.4 351.8 102.8 368.9 106.2 375.9 110.1 377.9 112 375.9 113.9 368.9 117.8 351.8 121.2S312.5 126.5 289.3 126.5 244 124.6 226.8 121.2C209.7 117.8 202.7 113.9 200.7 112 202.7 110.1 209.7 106.2 226.8 102.8M304.8 139.6C303.5 166.1 294 166.1 288.8 166.1 281.1 166.1 277.4 153.3 276.9 139.7 282.9 139.9 287.3 139.9 289.2 139.9 294.5 139.9 299.7 139.8 304.8 139.6M200.2 127.3C203.7 128.9 207.7 130.4 212.1 131.6 211.1 151.8 206.1 168.3 200.2 178.7zM246.9 226.8C244.3 226.9 236.6 227.1 236.1 266.8 234.5 266.6 233 266.3 231.4 266 231.4 253.5 231.7 237 233.9 222.9 235.7 210.9 239.6 196.6 247.7 196.6 249 196.6 250.2 197.2 251.4 198.4 261.5 208.5 264.3 249 264.8 269.7 263.1 269.6 261.5 269.5 259.8 269.4 257.5 226.5 249.5 226.7 246.9 226.8M252.3 268.8C249.3 268.5 246.4 268.2 243.6 267.9 243.8 249.3 245.7 239.9 247.2 236 248.8 239.8 251.2 249.3 252.3 268.8M299.6 270.3C300.4 267.3 301.8 265.8 302.3 265.8 302.5 265.8 303.9 266.7 305.4 270.1 303.5 270.2 301.5 270.3 299.6 270.3M326.6 268.8C324.9 258.8 319.8 253.4 315.2 248.6 309.5 242.6 304 236.8 304 222 304 210.6 305.5 203.1 307.9 195.4 308.5 193.4 307.4 191.3 305.4 190.7S301.3 191.2 300.7 193.2C298.2 201.6 296.5 209.6 296.5 221.9 296.5 239.8 303.5 247.2 309.7 253.7 313.9 258.1 317.7 262.1 319.1 269.4 317.2 269.5 315.2 269.7 313.3 269.8 309.9 259.3 304.6 258.1 301.6 258.4 296.9 258.9 293.2 263.7 291.9 270.5H288.2V264.9C288.2 262.8 286.5 261.2 284.5 261.2S280.8 262.9 280.8 264.9V270.5C278 270.4 275.2 270.4 272.4 270.2 272.3 263.9 271.9 252.7 270.7 240.9 268.2 216 263.6 200 256.9 193.3 254.2 190.6 251.2 189.3 247.8 189.3 225.7 189.3 224.1 235.2 224 264.8 207.5 261.2 201.5 257.3 200.3 255.8V191.8C212.1 179.2 218.3 155.1 219.6 133.8 223.6 134.7 227.9 135.5 232.1 136.1 231.8 159.5 227 168.1 221.6 177.9 214.7 190 207 204 207 248.4 207 250.5 208.7 252.1 210.7 252.1S214.4 250.4 214.4 248.4C214.4 205.9 221.3 193.4 228 181.3 233.6 171.1 238.9 161.5 239.4 136.9 243.8 137.5 248.1 137.9 252.4 138.3 253.1 163.8 259.3 175.3 265.8 187.3 273.1 200.8 280.6 214.7 280.6 252.4 280.6 254.5 282.3 256.1 284.3 256.1S288 254.4 288 252.4C288 212.8 280 198 272.3 183.8 266.3 172.7 260.6 162.2 259.8 138.9 263.1 139.1 266.3 139.3 269.2 139.4 269.7 156.4 275 173.6 288.6 173.6 296.8 173.6 302.6 170.5 306.5 164.1 309.9 158.5 311.7 150.6 312.2 139.3 316.5 139.1 320.6 138.8 324.7 138.4 323.3 150.5 318.4 159.4 312.9 169.4L312.4 170.3C311.4 172.1 312 174.4 313.9 175.4 314.5 175.7 315.1 175.9 315.7 175.9 317 175.9 318.3 175.2 319 174L319.5 173.1C325.4 162.4 331.1 152.2 332.4 137.8 337.7 137.2 342.8 136.5 347.6 135.7 346.8 144.6 350.2 152.5 354.1 161.4 358.4 171.2 363.3 182.3 364.2 198.5 365.4 218.3 360.8 232.5 357.1 243.9 354.6 251.5 352.4 258.4 352.5 265.2 352.2 265.3 351.9 265.3 351.6 265.4 344.2 266.7 335.7 267.9 326.6 268.8M408.8 158.2C404.8 161 398.5 166.7 391.8 177.3V172.1C391.8 168.4 388.8 165.3 385 165.3S378.2 168.3 378.2 172.1V255.5C377.2 256.8 372.5 260.1 360.1 263.2 360.4 258.1 362.2 252.5 364.3 246 368.2 234 373 219 371.7 197.8 370.7 180.4 365.3 168.1 360.9 158.2 356.8 148.9 353.8 141.9 355.3 134.1 356.3 133.9 357.3 133.7 358.2 133.5 358.3 133.5 358.5 133.4 358.6 133.4 362.7 142.4 369.6 147.7 378.2 148.4 379 151.3 381.6 153.4 384.7 153.4 388.4 153.4 391.5 150.4 391.5 146.6V145.6C395.1 145.1 400.6 144.5 408.5 143.8V158.2z" fill="#b57858" data-fill-palette-color="accent"></path><path d="M258.2 118.8C266.4 119.8 277.3 120.4 288.8 120.4S311.2 119.8 319.4 118.8C329.4 117.5 335.2 115.9 335.2 111.3 335.2 109.2 333.5 107.6 331.5 107.6 330.1 107.6 328.9 108.3 328.3 109.4 325.3 110.7 311.8 112.9 288.9 112.9S252.6 110.7 249.5 109.4C248.8 108.3 247.6 107.6 246.3 107.6 244.2 107.6 242.6 109.3 242.6 111.3 242.5 115.9 248.3 117.6 258.2 118.8" fill="#b57858" data-fill-palette-color="accent"></path><path d="M350.5 185.3C348.2 180.3 343.3 177.2 337.8 177.2 332.5 177.2 327.9 180 325.5 184.7 314.1 206.4 313.8 226 324.6 242.8 327.2 246.9 331.6 249.3 336.5 249.3 339.7 249.3 342.6 248.3 345.1 246.3 363.1 231.6 359.3 204.3 350.5 185.3M340.2 240.4C339.1 241.3 337.7 241.8 336.3 241.8 334 241.8 332 240.7 330.8 238.8 321.6 224.4 322 207.4 332 188.2 333.1 186 335.3 184.7 337.7 184.7 340.3 184.7 342.5 186.1 343.6 188.5 355.9 214.9 349.5 232.9 340.2 240.4" fill="#b57858" data-fill-palette-color="accent"></path></g></svg></g></svg></g></svg></g></svg></g><g></g></svg></g><defs></defs></svg><rect width="227.0029677565177" height="247.2" fill="none" stroke="none" visibility="hidden"></rect></g></svg></g></svg>